#!OML:ASF F:\VICON\USERDATA\INSTALL\rory3\rory3.ASF
:FULLY-SPECIFIED
:DEGREES
3381
root 2.63757 14.7912 -18.8442 -528.274 -47.9977 524.749
lowerback 17.3798 -2.80116 -9.73162
upperback -2.89869 -5.82246 0.73357
thorax -12.0071 -2.01359 7.89014
lowerneck -12.6062 -5.71213 -5.30302
upperneck 19.2637 -7.76959 2.67244
head 8.37745 -3.94853 0.882306
rclavicle -3.86139e-014 3.97569e-015
rhumerus 18.5266 46.7525 -54.8842
rradius 115.294
rwrist 18.7868
rhand -2.95872 27.9105
rfingers 7.12502
rthumb 22.7536 -0.767713
lclavicle -3.86139e-014 3.97569e-015
lhumerus -1.74158 -56.8954 89.2691
lradius 53.5456
lwrist 77.2575
lhand 4.62276 32.6798
lfingers 7.12502
lthumb 30.0101 60.2652
rfemur -34.2665 -23.0127 19.4525
rtibia 66.7342
rfoot -36.8922 -10.2016
rtoes 19.0487
lfemur -9.00958 -16.9483 0.31679
ltibia 16.8145
lfoot -42.1506 34.1389
ltoes 34.059
3382
root 2.63389 14.7968 -18.8333 -528.252 -48.076 524.85
lowerback 17.2751 -2.85715 -9.72361
upperback -2.8608 -5.87077 0.811783
thorax -11.8836 -2.04458 7.97191
lowerneck -12.2328 -5.67579 -4.72373
upperneck 18.8029 -7.7263 2.19713
head 8.10931 -3.93484 0.656753
rclavicle 8.43344e-014 -7.15625e-015
rhumerus 18.4477 46.6928 -55.0318
rradius 115.373
rwrist 18.7123
rhand -3.07481 27.6952
rfingers 7.12502
rthumb 22.6422 -0.996638
lclavicle 8.43344e-014 -7.15625e-015
lhumerus -1.36377 -56.936 88.9956
lradius 53.5496
lwrist 77.139
lhand 4.6083 32.3974
lfingers 7.12502
lthumb 29.9963 59.9853
rfemur -34.3802 -23.0428 19.5476
rtibia 66.6898
rfoot -36.757 -10.4538
rtoes 18.531
lfemur -9.31282 -16.9516 0.390846
ltibia 16.8904
lfoot -41.3044 35.169
ltoes 33.2536
3383
root 2.62696 14.7984 -18.8191 -528.434 -48.0684 525.191
lowerback 17.2276 -2.88304 -9.5268
upperback -2.83769 -5.84297 0.90264
thorax -11.8411 -2.04516 7.95048
lowerneck -11.6185 -5.64885 -3.90376
upperneck 18.0897 -7.67692 1.41838
head 7.69443 -3.93144 0.309469
rclavicle -2.04748e-014 8.74653e-015
rhumerus 18.1969 46.5229 -55.3508
rradius 115.361
rwrist 18.9151
rhand -3.39974 27.4801
rfingers 7.12502
rthumb 22.3303 -1.24954
lclavicle -2.04748e-014 8.74653e-015
lhumerus -1.15101 -57.0842 88.7883
lradius 53.5834
lwrist 77.1227
lhand 4.56083 31.9785
lfingers 7.12502
lthumb 29.951 59.5746
rfemur -34.4483 -22.9863 19.7762
rtibia 66.634
rfoot -36.7872 -10.4
rtoes 18.2657
lfemur -9.5185 -16.9316 0.630262
ltibia 17.0177
lfoot -41.4603 35.1976
ltoes 33.6376
3384
root 2.62148 14.7946 -18.8049 -528.868 -47.9064 525.654
lowerback 17.3604 -2.82346 -9.38601
upperback -2.77761 -5.72367 1.05367
thorax -11.8687 -1.99122 8.02287
lowerneck -11.3749 -5.68535 -3.67551
upperneck 17.7401 -7.69231 1.07918
head 7.51315 -3.95397 0.176617
rclavicle 2.85256e-014 -7.95139e-016
rhumerus 18.0408 46.3464 -55.5037
rradius 115.341
rwrist 18.9489
rhand -3.64165 27.4878
rfingers 7.12502
rthumb 22.098 -1.26944
lclavicle 2.85256e-014 -7.95139e-016
lhumerus -0.664711 -57.2046 88.522
lradius 53.5127
lwrist 77.1118
lhand 4.55949 31.9722
lfingers 7.12502
lthumb 29.9497 59.5686
rfemur -34.3985 -22.6991 20.0488
rtibia 66.6208
rfoot -36.7767 -10.4622
rtoes 18.5527
lfemur -9.37075 -16.8176 0.924144
ltibia 17.0417
lfoot -42.1679 34.3893
ltoes 34.8025
3385
root 2.60917 14.7906 -18.7931 -528.971 -47.7043 525.606
lowerback 17.4516 -2.75984 -9.60288
upperback -2.70493 -5.6861 1.10853
thorax -11.8214 -1.96215 8.20297
lowerneck -11.4173 -5.67634 -3.82221
upperneck 17.7692 -7.66644 1.15498
head 7.53888 -3.94383 0.225092
rclavicle -5.27276e-014 1.82882e-014
rhumerus 18.064 46.3816 -55.4995
rradius 115.336
rwrist 18.9739
rhand -3.86626 27.3868
rfingers 7.12502
rthumb 21.8824 -1.39585
lclavicle -5.27276e-014 1.82882e-014
lhumerus -0.144362 -57.0852 88.232
lradius 53.4415
lwrist 77.0389
lhand 4.61964 32.3513
lfingers 7.12502
lthumb 30.0071 59.9373
rfemur -34.3136 -22.5525 19.8586
rtibia 66.6992
rfoot -36.7335 -10.3852
rtoes 18.6392
lfemur -9.22414 -16.359 0.704235
ltibia 17.0314
lfoot -40.801 35.567
ltoes 32.5539
